<svg width="635" height="378" viewBox="0 0 635 378" fill="none" xmlns="http://www.w3.org/2000/svg">
<g clip-path="url(#clip0_6_2)">
<path d="M49.5329 82.35V49H121.523V82.35H49.5329ZM49.5329 145.37V114.09H119.223V145.37H49.5329ZM23.7729 49H61.0329V210H23.7729V49ZM194.309 212.3C182.042 212.3 171.386 210.077 162.339 205.63C153.446 201.03 146.546 194.59 141.639 186.31C136.732 178.03 134.279 168.293 134.279 157.1C134.279 145.753 136.656 135.94 141.409 127.66C146.162 119.38 152.986 113.017 161.879 108.57C170.926 104.123 181.582 101.9 193.849 101.9C206.116 101.9 216.466 104.047 224.899 108.34C233.332 112.48 239.772 118.537 244.219 126.51C248.666 134.483 250.889 144.143 250.889 155.49C250.889 157.177 250.889 158.863 250.889 160.55C250.889 162.083 250.736 163.387 250.429 164.46H153.829V145.14H219.149L210.869 155.72C211.636 154.647 212.249 153.343 212.709 151.81C213.322 150.123 213.629 148.743 213.629 147.67C213.629 143.07 212.786 139.083 211.099 135.71C209.412 132.337 207.036 129.73 203.969 127.89C200.902 126.05 197.299 125.13 193.159 125.13C187.946 125.13 183.576 126.28 180.049 128.58C176.522 130.88 173.839 134.407 171.999 139.16C170.312 143.76 169.392 149.587 169.239 156.64C169.239 163.08 170.159 168.6 171.999 173.2C173.839 177.8 176.599 181.327 180.279 183.78C183.959 186.08 188.482 187.23 193.849 187.23C199.982 187.23 205.196 186.08 209.489 183.78C213.936 181.48 217.462 178.03 220.069 173.43L251.119 181.02C245.599 191.447 238.086 199.267 228.579 204.48C219.226 209.693 207.802 212.3 194.309 212.3ZM272.335 30.6H307.295V210H272.335V30.6ZM332.257 64.41C332.257 58.89 334.25 54.4433 338.237 51.07C342.224 47.5433 346.977 45.78 352.497 45.78C358.17 45.78 362.924 47.5433 366.757 51.07C370.744 54.4433 372.737 58.89 372.737 64.41C372.737 69.93 370.744 74.4533 366.757 77.98C362.924 81.5067 358.17 83.27 352.497 83.27C346.977 83.27 342.224 81.5067 338.237 77.98C334.25 74.4533 332.257 69.93 332.257 64.41ZM335.707 104.2H369.287V210H335.707V104.2ZM506.221 104.2L437.221 260.6H402.261L428.021 201.49L382.251 104.2H420.431L454.701 189.07L436.761 188.84L470.571 104.2H506.221ZM544.743 176.88C544.743 179.64 545.433 182.017 546.813 184.01C548.193 185.85 550.033 187.307 552.333 188.38C554.633 189.3 557.163 189.76 559.923 189.76C563.909 189.76 567.589 188.917 570.963 187.23C574.336 185.543 577.096 183.013 579.243 179.64C581.389 176.267 582.463 172.127 582.463 167.22L586.143 181.02C586.143 187.767 584.303 193.517 580.623 198.27C576.943 202.87 572.189 206.397 566.363 208.85C560.536 211.15 554.249 212.3 547.503 212.3C540.756 212.3 534.469 211.073 528.643 208.62C522.969 206.013 518.369 202.18 514.843 197.12C511.469 192.06 509.783 185.927 509.783 178.72C509.783 168.6 513.386 160.627 520.593 154.8C527.799 148.82 537.996 145.83 551.183 145.83C557.623 145.83 563.373 146.443 568.433 147.67C573.646 148.897 578.093 150.43 581.773 152.27C585.453 154.11 588.213 156.027 590.053 158.02V173.43C586.373 170.67 582.079 168.6 577.173 167.22C572.419 165.687 567.359 164.92 561.993 164.92C557.853 164.92 554.556 165.38 552.103 166.3C549.649 167.22 547.809 168.6 546.583 170.44C545.356 172.127 544.743 174.273 544.743 176.88ZM529.333 136.63L517.603 113.4C523.583 110.487 530.789 107.727 539.223 105.12C547.656 102.513 556.856 101.21 566.823 101.21C576.176 101.21 584.533 102.59 591.893 105.35C599.253 107.957 605.079 111.79 609.373 116.85C613.666 121.91 615.813 128.12 615.813 135.48V210H582.463V143.3C582.463 140.693 582.003 138.47 581.083 136.63C580.316 134.637 579.089 132.95 577.403 131.57C575.716 130.19 573.569 129.193 570.963 128.58C568.509 127.967 565.673 127.66 562.453 127.66C557.699 127.66 553.023 128.197 548.423 129.27C543.976 130.343 540.066 131.647 536.693 133.18C533.319 134.56 530.866 135.71 529.333 136.63Z" fill="#003D6B"/>
<rect y="280" width="635" height="98" fill="#FF8000"/>
<path d="M59.2465 339.664H69.9985V346H51.0385V312.304H59.2465V339.664ZM72.2815 332.56C72.2815 329.808 72.7935 327.392 73.8175 325.312C74.8735 323.232 76.2975 321.632 78.0895 320.512C79.8815 319.392 81.8815 318.832 84.0895 318.832C85.9775 318.832 87.6255 319.216 89.0335 319.984C90.4735 320.752 91.5775 321.76 92.3455 323.008V319.216H100.554V346H92.3455V342.208C91.5455 343.456 90.4255 344.464 88.9855 345.232C87.5775 346 85.9295 346.384 84.0415 346.384C81.8655 346.384 79.8815 345.824 78.0895 344.704C76.2975 343.552 74.8735 341.936 73.8175 339.856C72.7935 337.744 72.2815 335.312 72.2815 332.56ZM92.3455 332.608C92.3455 330.56 91.7695 328.944 90.6175 327.76C89.4975 326.576 88.1215 325.984 86.4895 325.984C84.8575 325.984 83.4655 326.576 82.3135 327.76C81.1935 328.912 80.6335 330.512 80.6335 332.56C80.6335 334.608 81.1935 336.24 82.3135 337.456C83.4655 338.64 84.8575 339.232 86.4895 339.232C88.1215 339.232 89.4975 338.64 90.6175 337.456C91.7695 336.272 92.3455 334.656 92.3455 332.608ZM133.852 319.216L117.052 358.72H108.22L114.364 345.088L103.468 319.216H112.636L118.828 335.968L124.972 319.216H133.852ZM135.188 332.56C135.188 329.808 135.7 327.392 136.724 325.312C137.78 323.232 139.204 321.632 140.996 320.512C142.788 319.392 144.788 318.832 146.996 318.832C148.884 318.832 150.532 319.216 151.94 319.984C153.38 320.752 154.484 321.76 155.252 323.008V319.216H163.46V346H155.252V342.208C154.452 343.456 153.332 344.464 151.892 345.232C150.484 346 148.836 346.384 146.948 346.384C144.772 346.384 142.788 345.824 140.996 344.704C139.204 343.552 137.78 341.936 136.724 339.856C135.7 337.744 135.188 335.312 135.188 332.56ZM155.252 332.608C155.252 330.56 154.676 328.944 153.524 327.76C152.404 326.576 151.028 325.984 149.396 325.984C147.764 325.984 146.372 326.576 145.22 327.76C144.1 328.912 143.54 330.512 143.54 332.56C143.54 334.608 144.1 336.24 145.22 337.456C146.372 338.64 147.764 339.232 149.396 339.232C151.028 339.232 152.404 338.64 153.524 337.456C154.676 336.272 155.252 334.656 155.252 332.608ZM185.718 318.928C188.854 318.928 191.35 319.952 193.206 322C195.094 324.016 196.038 326.8 196.038 330.352V346H187.878V331.456C187.878 329.664 187.414 328.272 186.486 327.28C185.558 326.288 184.31 325.792 182.742 325.792C181.174 325.792 179.926 326.288 178.998 327.28C178.07 328.272 177.606 329.664 177.606 331.456V346H169.398V319.216H177.606V322.768C178.438 321.584 179.558 320.656 180.966 319.984C182.374 319.28 183.958 318.928 185.718 318.928ZM200.11 332.56C200.11 329.808 200.622 327.392 201.646 325.312C202.702 323.232 204.126 321.632 205.918 320.512C207.71 319.392 209.71 318.832 211.918 318.832C213.806 318.832 215.454 319.216 216.862 319.984C218.302 320.752 219.406 321.76 220.174 323.008V319.216H228.382V346H220.174V342.208C219.374 343.456 218.254 344.464 216.814 345.232C215.406 346 213.758 346.384 211.87 346.384C209.694 346.384 207.71 345.824 205.918 344.704C204.126 343.552 202.702 341.936 201.646 339.856C200.622 337.744 200.11 335.312 200.11 332.56ZM220.174 332.608C220.174 330.56 219.598 328.944 218.446 327.76C217.326 326.576 215.95 325.984 214.318 325.984C212.686 325.984 211.294 326.576 210.142 327.76C209.022 328.912 208.462 330.512 208.462 332.56C208.462 334.608 209.022 336.24 210.142 337.456C211.294 338.64 212.686 339.232 214.318 339.232C215.95 339.232 217.326 338.64 218.446 337.456C219.598 336.272 220.174 334.656 220.174 332.608ZM250.64 318.928C253.776 318.928 256.272 319.952 258.128 322C260.016 324.016 260.96 326.8 260.96 330.352V346H252.8V331.456C252.8 329.664 252.336 328.272 251.408 327.28C250.48 326.288 249.232 325.792 247.664 325.792C246.096 325.792 244.848 326.288 243.92 327.28C242.992 328.272 242.528 329.664 242.528 331.456V346H234.32V319.216H242.528V322.768C243.36 321.584 244.48 320.656 245.888 319.984C247.296 319.28 248.88 318.928 250.64 318.928ZM302.611 346L299.491 342.976C296.387 345.344 292.675 346.528 288.355 346.528C285.763 346.528 283.507 346.112 281.587 345.28C279.667 344.416 278.179 343.216 277.123 341.68C276.099 340.112 275.587 338.288 275.587 336.208C275.587 334.096 276.147 332.192 277.267 330.496C278.419 328.768 280.131 327.36 282.403 326.272C281.571 325.248 280.979 324.272 280.627 323.344C280.275 322.384 280.099 321.344 280.099 320.224C280.099 318.624 280.515 317.168 281.347 315.856C282.179 314.544 283.379 313.52 284.947 312.784C286.547 312.016 288.435 311.632 290.611 311.632C292.819 311.632 294.691 312.032 296.227 312.832C297.763 313.632 298.915 314.704 299.683 316.048C300.451 317.392 300.803 318.864 300.739 320.464H293.011C293.043 319.6 292.819 318.944 292.339 318.496C291.891 318.016 291.283 317.776 290.515 317.776C289.747 317.776 289.107 318 288.595 318.448C288.083 318.896 287.827 319.472 287.827 320.176C287.827 320.848 288.035 321.552 288.451 322.288C288.899 323.024 289.587 323.872 290.515 324.832L298.723 332.848C298.787 332.688 298.867 332.496 298.963 332.272C299.091 332.048 299.219 331.792 299.347 331.504L301.123 328.48H309.331L307.027 332.656C306.163 334.544 305.171 336.336 304.051 338.032L312.163 346H302.611ZM288.739 339.904C290.883 339.904 292.787 339.296 294.451 338.08L286.963 330.832C284.659 332.016 283.507 333.616 283.507 335.632C283.507 336.848 283.971 337.872 284.899 338.704C285.859 339.504 287.139 339.904 288.739 339.904ZM337.496 346.336C335.032 346.336 332.824 345.936 330.872 345.136C328.92 344.336 327.352 343.152 326.168 341.584C325.016 340.016 324.408 338.128 324.344 335.92H333.08C333.208 337.168 333.64 338.128 334.376 338.8C335.112 339.44 336.072 339.76 337.256 339.76C338.472 339.76 339.432 339.488 340.136 338.944C340.84 338.368 341.192 337.584 341.192 336.592C341.192 335.76 340.904 335.072 340.328 334.528C339.784 333.984 339.096 333.536 338.264 333.184C337.464 332.832 336.312 332.432 334.808 331.984C332.632 331.312 330.856 330.64 329.48 329.968C328.104 329.296 326.92 328.304 325.928 326.992C324.936 325.68 324.44 323.968 324.44 321.856C324.44 318.72 325.576 316.272 327.848 314.512C330.12 312.72 333.08 311.824 336.728 311.824C340.44 311.824 343.432 312.72 345.704 314.512C347.976 316.272 349.192 318.736 349.352 321.904H340.472C340.408 320.816 340.008 319.968 339.272 319.36C338.536 318.72 337.592 318.4 336.44 318.4C335.448 318.4 334.648 318.672 334.04 319.216C333.432 319.728 333.128 320.48 333.128 321.472C333.128 322.56 333.64 323.408 334.664 324.016C335.688 324.624 337.288 325.28 339.464 325.984C341.64 326.72 343.4 327.424 344.744 328.096C346.12 328.768 347.304 329.744 348.296 331.024C349.288 332.304 349.784 333.952 349.784 335.968C349.784 337.888 349.288 339.632 348.296 341.2C347.336 342.768 345.928 344.016 344.072 344.944C342.216 345.872 340.024 346.336 337.496 346.336ZM380.083 332.176C380.083 332.944 380.035 333.744 379.939 334.576H361.363C361.491 336.24 362.019 337.52 362.947 338.416C363.907 339.28 365.075 339.712 366.451 339.712C368.499 339.712 369.923 338.848 370.723 337.12H379.459C379.011 338.88 378.195 340.464 377.011 341.872C375.859 343.28 374.403 344.384 372.643 345.184C370.883 345.984 368.915 346.384 366.739 346.384C364.115 346.384 361.779 345.824 359.731 344.704C357.683 343.584 356.083 341.984 354.931 339.904C353.779 337.824 353.203 335.392 353.203 332.608C353.203 329.824 353.763 327.392 354.883 325.312C356.035 323.232 357.635 321.632 359.683 320.512C361.731 319.392 364.083 318.832 366.739 318.832C369.331 318.832 371.635 319.376 373.651 320.464C375.667 321.552 377.235 323.104 378.355 325.12C379.507 327.136 380.083 329.488 380.083 332.176ZM371.683 330.016C371.683 328.608 371.203 327.488 370.243 326.656C369.283 325.824 368.083 325.408 366.643 325.408C365.267 325.408 364.099 325.808 363.139 326.608C362.211 327.408 361.635 328.544 361.411 330.016H371.683ZM392.622 323.68C393.582 322.208 394.782 321.056 396.222 320.224C397.662 319.36 399.262 318.928 401.022 318.928V327.616H398.766C396.718 327.616 395.182 328.064 394.158 328.96C393.134 329.824 392.622 331.36 392.622 333.568V346H384.414V319.216H392.622V323.68ZM416.993 338.32L422.801 319.216H431.537L422.033 346H411.905L402.401 319.216H411.185L416.993 338.32ZM439.12 316.432C437.68 316.432 436.496 316.016 435.568 315.184C434.672 314.32 434.224 313.264 434.224 312.016C434.224 310.736 434.672 309.68 435.568 308.848C436.496 307.984 437.68 307.552 439.12 307.552C440.528 307.552 441.68 307.984 442.576 308.848C443.504 309.68 443.968 310.736 443.968 312.016C443.968 313.264 443.504 314.32 442.576 315.184C441.68 316.016 440.528 316.432 439.12 316.432ZM443.2 319.216V346H434.992V319.216H443.2ZM447.516 332.608C447.516 329.824 448.076 327.392 449.196 325.312C450.348 323.232 451.932 321.632 453.948 320.512C455.996 319.392 458.332 318.832 460.956 318.832C464.316 318.832 467.116 319.712 469.356 321.472C471.628 323.232 473.116 325.712 473.82 328.912H465.084C464.348 326.864 462.924 325.84 460.812 325.84C459.308 325.84 458.108 326.432 457.212 327.616C456.316 328.768 455.868 330.432 455.868 332.608C455.868 334.784 456.316 336.464 457.212 337.648C458.108 338.8 459.308 339.376 460.812 339.376C462.924 339.376 464.348 338.352 465.084 336.304H473.82C473.116 339.44 471.628 341.904 469.356 343.696C467.084 345.488 464.284 346.384 460.956 346.384C458.332 346.384 455.996 345.824 453.948 344.704C451.932 343.584 450.348 341.984 449.196 339.904C448.076 337.824 447.516 335.392 447.516 332.608ZM503.458 332.176C503.458 332.944 503.41 333.744 503.314 334.576H484.738C484.866 336.24 485.394 337.52 486.322 338.416C487.282 339.28 488.45 339.712 489.826 339.712C491.874 339.712 493.298 338.848 494.098 337.12H502.834C502.386 338.88 501.57 340.464 500.386 341.872C499.234 343.28 497.778 344.384 496.018 345.184C494.258 345.984 492.29 346.384 490.114 346.384C487.49 346.384 485.154 345.824 483.106 344.704C481.058 343.584 479.458 341.984 478.306 339.904C477.154 337.824 476.578 335.392 476.578 332.608C476.578 329.824 477.138 327.392 478.258 325.312C479.41 323.232 481.01 321.632 483.058 320.512C485.106 319.392 487.458 318.832 490.114 318.832C492.706 318.832 495.01 319.376 497.026 320.464C499.042 321.552 500.61 323.104 501.73 325.12C502.882 327.136 503.458 329.488 503.458 332.176ZM495.058 330.016C495.058 328.608 494.578 327.488 493.618 326.656C492.658 325.824 491.458 325.408 490.018 325.408C488.642 325.408 487.474 325.808 486.514 326.608C485.586 327.408 485.01 328.544 484.786 330.016H495.058ZM538.936 340.048H526.36L524.344 346H515.752L527.944 312.304H537.448L549.64 346H540.952L538.936 340.048ZM536.824 333.712L532.648 321.376L528.52 333.712H536.824ZM551.959 329.104C551.959 325.776 552.679 322.816 554.119 320.224C555.559 317.6 557.559 315.568 560.119 314.128C562.711 312.656 565.639 311.92 568.903 311.92C572.903 311.92 576.327 312.976 579.175 315.088C582.023 317.2 583.927 320.08 584.887 323.728H575.863C575.191 322.32 574.231 321.248 572.983 320.512C571.767 319.776 570.375 319.408 568.807 319.408C566.279 319.408 564.231 320.288 562.663 322.048C561.095 323.808 560.311 326.16 560.311 329.104C560.311 332.048 561.095 334.4 562.663 336.16C564.231 337.92 566.279 338.8 568.807 338.8C570.375 338.8 571.767 338.432 572.983 337.696C574.231 336.96 575.191 335.888 575.863 334.48H584.887C583.927 338.128 582.023 341.008 579.175 343.12C576.327 345.2 572.903 346.24 568.903 346.24C565.639 346.24 562.711 345.52 560.119 344.08C557.559 342.608 555.559 340.576 554.119 337.984C552.679 335.392 551.959 332.432 551.959 329.104Z" fill="white"/>
</g>
<defs>
<clipPath id="clip0_6_2">
<rect width="635" height="378" fill="white"/>
</clipPath>
</defs>
</svg>
